<svg width="144" height="101" viewBox="0 0 144 101" fill="none" xmlns="http://www.w3.org/2000/svg">
<path fill-rule="evenodd" clip-rule="evenodd" d="M48.5057 7.50081C48.5057 3.35823 51.8639 0 56.0065 0H91.5312C95.6738 0 99.032 3.35823 99.032 7.50081V39.9948C99.032 44.1374 102.39 47.4956 106.533 47.4956H136.499C140.642 47.4956 144 50.8539 144 54.9964V85.4686C144 89.6111 140.642 92.9694 136.499 92.9694H106.027C101.884 92.9694 98.5263 89.6111 98.5263 85.4686V58.0272C98.5263 53.8846 95.168 50.5264 91.0255 50.5264H58.0272C53.8846 50.5264 50.5264 53.8846 50.5264 58.0272V92.5435C50.5264 96.686 47.1681 100.044 43.0255 100.044H7.50081C3.35823 100.044 0 96.686 0 92.5435V57.0187C0 52.8761 3.35822 49.5179 7.5008 49.5179H41.0049C45.1475 49.5179 48.5057 46.1597 48.5057 42.0171V7.50081Z" fill="#3BD783"/>
</svg>
